{"title":"Welcome To Karachi (2015) RK Pre DvD Rip - XviD - [1CD] - Team I","uid":11977555,"size":736128994,"categoryP":"video","categoryS":"movies","magnet":"?xt=urn:btih:562ea7d3629349bb7200f30c1a8f03f4659996d2&amp;dn=Welcome+To+Karachi+%282015%29+RK+Pre+DvD+Rip+-+XviD+-+%5B1CD%5D+-+Team+I&amp;tr=udp%3A%2F%2Ftracker.openbittorrent.com%3A80&amp;tr=udp%3A%2F%2Fopen.demonii.com%3A1337&amp;tr=udp%3A%2F%2Ftracker.coppersurfer.tk%3A6969&amp;tr=udp%3A%2F%2Fexodus.desync.com%3A6969","seeders":38,"leechers":21,"uploader":"SS132203","files":3,"time":1433085432,"description":"Welcome To Karachi (2015) RK Pre DvD Rip - XviD - [1CD] - Team IcTv Exclusive\n &lt;a href=&quot;\nhttp://imgsparrow.co/image/47&quot; rel=&quot;nofollow&quot; target=&quot;_NEW&quot;&gt;\nhttp://imgsparrow.co/image/47&lt;/a&gt;\n &lt;a href=&quot;\nhttp://imgsparrow.co/image/Gy&quot; rel=&quot;nofollow&quot; target=&quot;_NEW&quot;&gt;\nhttp://imgsparrow.co/image/Gy&lt;/a&gt;\n\nInfo : - \n\nAll Credit Goes To Intellect Clever &amp; IcTv\nSample Within Torrent\n\nMovie Info\nBanner : Pooja Entertainment India Ltd.\nYear : 2015\nCast : Jackky Bhagnani.Arshad Warsi.Lauren Gottlieb\nVideo: XviD\nAudio : MP3\nGenre : Comedy\nSubtitles :Nope\nResolution : 640 x 272\nRuntime : 1hr 55min XX\nSource : Team IcTv\n\nFormat                      : AVI\nFormat/Info                 : Audio Video Interleave\nFile size                   : 692 MiB\nDuration                    : 1h 54mn\nOverall bit rate            : 842 Kbps\n\nVideo\nID                          : 0\nFormat                      : MPEG-4 Visual\nFormat profile              : Advanced Simple@L5\nFormat settings, BVOP       : 2\nFormat settings, QPel       : No\nFormat settings, GMC        : No warppoints\nFormat settings, Matrix     : Default (H.263)\nCodec ID                    : XVID\nCodec ID/Hint               : XviD\nDuration                    : 1h 54mn\nBit rate                    : 706 Kbps\nWidth                       : 640 pixels\nHeight                      : 272 pixels\nDisplay aspect ratio        : 2.35:1\nFrame rate                  : 29.970 fps\nColor space                 : YUV\nChroma subsampling          : 4:2:0\nBit depth                   : 8 bits\nScan type                   : Progressive\nCompression mode            : Lossy\nBits/(Pixel*Frame)          : 0.135\nStream size                 : 581 MiB (84%)\nWriting library             : XviD 1.2.1 (UTC 2008-12-04)\n\nAudio\nID                          : 1\nFormat                      : MPEG Audio\nFormat version              : Version 1\nFormat profile              : Layer 3\nMode                        : Joint stereo\nMode extension              : MS Stereo\nCodec ID                    : 55\nCodec ID/Hint               : MP3\nDuration                    : 1h 54mn\nBit rate mode               : Constant\nBit rate                    : 128 Kbps\nChannel(s)                  : 2 channels\nSampling rate               : 48.0 KHz\nCompression mode            : Lossy\nStream size                 : 105 MiB (15%)\nAlignment                   : Aligned on interleaves\nInterleave, duration        : 133 ms (4.00 video frames)\nInterleave, preload duratio : 216 ms\nTitle                       : VTS_01_1 T80 2_0ch 192Kbps DELAY 0ms\nWriting library             : LAME3.99r\nEncoding settings           : -m j -V 4 -q 2 -lowpass 17 -b 128\n\nScreens : - \n &lt;a href=&quot;\nhttp://imgsparrow.co/image/eM&quot; rel=&quot;nofollow&quot; target=&quot;_NEW&quot;&gt;\nhttp://imgsparrow.co/image/eM&lt;/a&gt; &lt;a href=&quot;\nhttp://imgsparrow.co/image/em&quot; rel=&quot;nofollow&quot; target=&quot;_NEW&quot;&gt;\nhttp://imgsparrow.co/image/em&lt;/a&gt; &lt;a href=&quot;\nhttp://imgsparrow.co/image/eF&quot; rel=&quot;nofollow&quot; target=&quot;_NEW&quot;&gt;\nhttp://imgsparrow.co/image/eF&lt;/a&gt; &lt;a href=&quot;\nhttp://imgsparrow.co/image/eO&quot; rel=&quot;nofollow&quot; target=&quot;_NEW&quot;&gt;\nhttp://imgsparrow.co/image/eO&lt;/a&gt; &lt;a href=&quot;\nhttp://imgsparrow.co/image/ep&quot; rel=&quot;nofollow&quot; target=&quot;_NEW&quot;&gt;\nhttp://imgsparrow.co/image/ep&lt;/a&gt; &lt;a href=&quot;\nhttp://imgsparrow.co/image/e0&quot; rel=&quot;nofollow&quot; target=&quot;_NEW&quot;&gt;\nhttp://imgsparrow.co/image/e0&lt;/a&gt; &lt;a href=&quot;\nhttp://imgsparrow.co/image/eB&quot; rel=&quot;nofollow&quot; target=&quot;_NEW&quot;&gt;\nhttp://imgsparrow.co/image/eB&lt;/a&gt; &lt;a href=&quot;\nhttp://imgsparrow.co/image/eK&quot; rel=&quot;nofollow&quot; target=&quot;_NEW&quot;&gt;\nhttp://imgsparrow.co/image/eK&lt;/a&gt; &lt;a href=&quot;\nhttp://imgsparrow.co/image/e2&quot; rel=&quot;nofollow&quot; target=&quot;_NEW&quot;&gt;\nhttp://imgsparrow.co/image/e2&lt;/a&gt; &lt;a href=&quot;\nhttp://imgsparrow.co/image/e3&quot; rel=&quot;nofollow&quot; target=&quot;_NEW&quot;&gt;\nhttp://imgsparrow.co/image/e3&lt;/a&gt;\n &lt;a href=&quot;\nhttp://imgsparrow.co/image/N2&quot; rel=&quot;nofollow&quot; target=&quot;_NEW&quot;&gt;\nhttp://imgsparrow.co/image/N2&lt;/a&gt;","torrent":{"xt":"urn:btih:562ea7d3629349bb7200f30c1a8f03f4659996d2","amp;dn":"Welcome+To+Karachi+%282015%29+RK+Pre+DvD+Rip+-+XviD+-+%5B1CD%5D+-+Team+I","amp;tr":["udp%3A%2F%2Ftracker.openbittorrent.com%3A80","udp%3A%2F%2Fopen.demonii.com%3A1337","udp%3A%2F%2Ftracker.coppersurfer.tk%3A6969","udp%3A%2F%2Fexodus.desync.com%3A6969"],"infoHash":"562ea7d3629349bb7200f30c1a8f03f4659996d2","infoHashBuffer":{"type":"Buffer","data":[86,46,167,211,98,147,73,187,114,0,243,12,26,143,3,244,101,153,150,210]},"announce":[],"urlList":[]}}